<svg width="19" height="19" viewBox="0 0 19 19" fill="none" xmlns="http://www.w3.org/2000/svg">
    <path fill-rule="evenodd" clip-rule="evenodd"
        d="M17.4636 2.37831L16.458 1.37265L9.41834 8.41229L2.37869 1.37265L1.37303 2.37831L8.41267 9.41795L1.37303 16.4576L2.3787 17.4633L9.41834 10.4236L16.458 17.4633L17.4636 16.4576L10.424 9.41795L17.4636 2.37831Z"
        fill="#133F4F" />
    <path
        d="M16.458 1.37265L16.8115 1.0191L16.458 0.665542L16.1044 1.0191L16.458 1.37265ZM17.4636 2.37831L17.8172 2.73187L18.1707 2.37831L17.8172 2.02476L17.4636 2.37831ZM9.41834 8.41229L9.06478 8.76584L9.41834 9.1194L9.77189 8.76584L9.41834 8.41229ZM2.37869 1.37265L2.73225 1.01909L2.37869 0.665541L2.02514 1.01909L2.37869 1.37265ZM1.37303 2.37831L1.01948 2.02476L0.665925 2.37831L1.01948 2.73186L1.37303 2.37831ZM8.41267 9.41795L8.76623 9.77151L9.11978 9.41795L8.76623 9.0644L8.41267 9.41795ZM1.37303 16.4576L1.01948 16.104L0.665926 16.4576L1.01948 16.8111L1.37303 16.4576ZM2.3787 17.4633L2.02514 17.8168L2.3787 18.1704L2.73225 17.8168L2.3787 17.4633ZM9.41834 10.4236L9.77189 10.0701L9.41834 9.71651L9.06478 10.0701L9.41834 10.4236ZM16.458 17.4633L16.1044 17.8168L16.458 18.1704L16.8115 17.8168L16.458 17.4633ZM17.4636 16.4576L17.8172 16.8111L18.1707 16.4576L17.8172 16.104L17.4636 16.4576ZM10.424 9.41795L10.0704 9.0644L9.71689 9.41795L10.0704 9.77151L10.424 9.41795ZM16.1044 1.7262L17.1101 2.73187L17.8172 2.02476L16.8115 1.0191L16.1044 1.7262ZM9.77189 8.76584L16.8115 1.7262L16.1044 1.0191L9.06478 8.05874L9.77189 8.76584ZM2.02514 1.7262L9.06478 8.76584L9.77189 8.05874L2.73225 1.01909L2.02514 1.7262ZM1.72659 2.73186L2.73225 1.7262L2.02514 1.01909L1.01948 2.02476L1.72659 2.73186ZM8.76623 9.0644L1.72659 2.02476L1.01948 2.73186L8.05912 9.77151L8.76623 9.0644ZM1.72659 16.8111L8.76623 9.77151L8.05912 9.0644L1.01948 16.104L1.72659 16.8111ZM2.73225 17.1097L1.72659 16.104L1.01948 16.8111L2.02514 17.8168L2.73225 17.1097ZM9.06478 10.0701L2.02514 17.1097L2.73225 17.8168L9.77189 10.7772L9.06478 10.0701ZM16.8115 17.1097L9.77189 10.0701L9.06478 10.7772L16.1044 17.8168L16.8115 17.1097ZM17.1101 16.104L16.1044 17.1097L16.8115 17.8168L17.8172 16.8111L17.1101 16.104ZM10.0704 9.77151L17.1101 16.8111L17.8172 16.104L10.7776 9.0644L10.0704 9.77151ZM17.1101 2.02476L10.0704 9.0644L10.7776 9.77151L17.8172 2.73187L17.1101 2.02476Z"
        fill="#133F4F" />
</svg>
