<svg width="16" height="16" viewBox="0 0 16 16" fill="none" xmlns="http://www.w3.org/2000/svg">
<path fill-rule="evenodd" clip-rule="evenodd" d="M10.7396 11.2755C10.9504 11.038 10.8849 10.6768 10.6247 10.4946C10.3646 10.3125 10.0089 10.3794 9.79004 10.6095C9.36636 11.0551 8.84004 11.3948 8.25344 11.5968C7.48469 11.8615 6.65188 11.876 5.87437 11.6383C5.09686 11.4006 4.41455 10.9229 3.92525 10.2735C3.43595 9.62421 3.16478 8.83665 3.15059 8.02374C3.1364 7.21082 3.37992 6.41428 3.84627 5.74827C4.31261 5.08227 4.97782 4.581 5.74656 4.3163C6.51531 4.0516 7.34812 4.03706 8.12563 4.27477C8.71893 4.45616 9.25678 4.77732 9.69575 5.20782C9.92248 5.43018 10.2803 5.48463 10.534 5.29351C10.7876 5.1024 10.8405 4.73914 10.6215 4.50912C10.0306 3.88838 9.28758 3.42747 8.46186 3.17502C7.4521 2.86631 6.37053 2.88518 5.37216 3.22895C4.37379 3.57272 3.50988 4.22372 2.90424 5.08866C2.2986 5.9536 1.98233 6.98807 2.00076 8.04381C2.01919 9.09954 2.37137 10.1223 3.00682 10.9656C3.64228 11.8089 4.52838 12.4294 5.53814 12.7381C6.5479 13.0468 7.62947 13.0279 8.62784 12.6841C9.44425 12.403 10.1707 11.9165 10.7396 11.2755ZM11.5755 6.07785C11.39 6.26334 11.39 6.5641 11.5755 6.7496L12.3074 7.48149L7.38237 7.48149C7.12004 7.48149 6.90737 7.69416 6.90737 7.95649C6.90737 8.21883 7.12004 8.43149 7.38237 8.43149L12.4491 8.43149L11.5755 9.30511C11.39 9.49061 11.39 9.79136 11.5755 9.97686C11.761 10.1624 12.0617 10.1624 12.2472 9.97686L13.8609 8.36323C14.0464 8.17773 14.0464 7.87698 13.8609 7.69148L12.2472 6.07785C12.0617 5.89235 11.761 5.89235 11.5755 6.07785Z" fill="#BEC8C9"/>
</svg>
