<?xml version="1.0" encoding="UTF-8"?>
<svg version="1.1" xmlns="http://www.w3.org/2000/svg" width="512" height="512">
<path d="M0 0 C158.4 0 316.8 0 480 0 C480 170.83322089 480 170.83322089 472.3125 187.8125 C471.97001221 188.59254395 471.62752441 189.37258789 471.2746582 190.17626953 C458.97920528 217.31470645 436.6594588 238.54921144 408.89599609 249.29345703 C396.34462074 253.97072722 384.32189799 256.30621332 370.94065857 256.26742554 C369.77606411 256.27195665 368.61146964 256.27648776 367.41158444 256.28115618 C364.21029443 256.29155577 361.00914729 256.29313821 357.80784595 256.29076743 C354.34275225 256.29035658 350.87769113 256.30142392 347.41261292 256.31088257 C340.63487718 256.32743689 333.85717626 256.33298962 327.07942199 256.33410732 C321.56400625 256.33506061 316.0486019 256.33918488 310.53318977 256.34550858 C294.86282243 256.36310713 279.19248239 256.37234982 263.52210509 256.37084763 C262.67877281 256.37076772 261.83544054 256.3706878 260.96655273 256.37060547 C259.69999215 256.37048283 259.69999215 256.37048283 258.40784449 256.37035771 C244.73748658 256.36954559 231.06723905 256.38866826 217.39691304 256.4168822 C203.32781567 256.44568772 189.25877198 256.45941824 175.1896444 256.45769465 C167.30403449 256.45703331 159.41854025 256.4624125 151.53295708 256.48405075 C144.81652657 256.50236401 138.10026415 256.50652758 131.38381933 256.4930319 C127.96469767 256.48655227 124.54615738 256.48842285 121.1270256 256.5037384 C90.26626729 256.63293961 62.8122349 250.65306609 39 230 C38.19175781 229.33613281 37.38351563 228.67226563 36.55078125 227.98828125 C22.36071962 215.93675324 11.93518562 199.88543445 5.625 182.4375 C5.28505005 181.50296997 5.28505005 181.50296997 4.93823242 180.54956055 C-14.26942942 123.49001904 0 60.20569367 0 0 Z M68 54.0625 C64.5728418 59.0961386 64.3423134 62.97892552 65 69 C67.34792658 73.8764629 70.28760854 76.40337614 75 79 C78.79488695 79.98337421 82.38906496 80.13682914 86.29980469 80.16113281 C87.55170593 80.17074036 88.80360718 80.1803479 90.09344482 80.19024658 C91.45291968 80.1950959 92.81239667 80.1993744 94.171875 80.203125 C95.20727291 80.20736607 95.20727291 80.20736607 96.26358795 80.21169281 C99.91791665 80.22664985 103.57220624 80.23590076 107.2265625 80.24023438 C110.97993028 80.24570783 114.73293326 80.26972166 118.48618698 80.29820633 C121.39118456 80.31693625 124.29609616 80.32204382 127.20114899 80.32357025 C128.58369181 80.326575 129.96623392 80.33452891 131.34871674 80.34775543 C143.76932847 80.76464037 143.76932847 80.76464037 154.61053467 75.5479126 C158.68998746 70.81976141 159.35593387 67.59923382 159.27734375 61.5390625 C158.86623556 57.77539598 157.5171364 55.78209813 155 53 C149.31874639 48.52752375 144.77394852 47.88282771 137.70019531 47.83886719 C135.82234344 47.82445587 135.82234344 47.82445587 133.90655518 47.80975342 C132.54708032 47.8049041 131.18760333 47.8006256 129.828125 47.796875 C128.79272709 47.79263393 128.79272709 47.79263393 127.73641205 47.78830719 C124.08208335 47.77335015 120.42779376 47.76409924 116.7734375 47.75976562 C113.02006972 47.75429217 109.26706674 47.73027834 105.51381302 47.70179367 C102.60881544 47.68306375 99.70390384 47.67795618 96.79885101 47.67642975 C95.41630819 47.673425 94.03376608 47.66547109 92.65128326 47.65224457 C79.05662217 47.25155373 79.05662217 47.25155373 68 54.0625 Z " fill="#EBEBED" transform="translate(16,192)"/>
<path d="M0 0 C2.79071425 -0.00407107 5.5814114 -0.01257722 8.37211609 -0.02079773 C15.13595527 -0.0379018 21.89970121 -0.03884325 28.66355637 -0.03358483 C34.16743933 -0.02952589 39.67129495 -0.03100702 45.17517662 -0.03633308 C45.96170057 -0.03708151 46.74822453 -0.03782993 47.55858254 -0.03860103 C49.15695837 -0.04013268 50.7553342 -0.04167103 52.35371002 -0.043216 C67.30779664 -0.05691086 82.26183079 -0.05152478 97.21591618 -0.04003078 C110.86015847 -0.03010315 124.50426505 -0.04303631 138.14848641 -0.06696498 C152.19963647 -0.09141931 166.25072348 -0.10094824 180.30189437 -0.09431225 C188.17402353 -0.09083385 196.04604846 -0.09296015 203.91816139 -0.11056328 C210.61986483 -0.12536488 217.32139062 -0.12581787 224.02309088 -0.10849237 C227.43413237 -0.10004434 230.84460054 -0.09989062 234.25566483 -0.11314392 C265.09233614 -0.22373982 292.5362991 5.76805273 316.32885742 26.40405273 C317.13709961 27.06791992 317.9453418 27.73178711 318.77807617 28.41577148 C337.4686636 44.28956709 349.17764456 66.63659619 354.32885742 90.40405273 C354.32885742 92.38405273 354.32885742 94.36405273 354.32885742 96.40405273 C196.58885742 96.40405273 38.84885742 96.40405273 -123.67114258 96.40405273 C-120.88571793 68.54980622 -106.20878327 43.01484706 -84.72338867 25.11035156 C-74.5208337 16.93656734 -63.41070551 10.47819259 -51.10864258 6.02905273 C-50.17411255 5.68910278 -50.17411255 5.68910278 -49.22070312 5.34228516 C-47.0547537 4.61317267 -44.87618762 4.00594619 -42.67114258 3.40405273 C-41.7604366 3.15063582 -40.84973063 2.89721891 -39.9114275 2.6361227 C-26.75095099 -0.50430581 -13.45562024 -0.02490706 0 0 Z " fill="#FA1127" transform="translate(140.671142578125,63.595947265625)"/>
</svg>
